<?xml version="1.0" encoding="UTF-8"?>
<svg width="30pt" height="30pt" version="1.1" viewBox="150 75 400 400" xmlns="http://www.w3.org/2000/svg" xmlns:xlink="http://www.w3.org/1999/xlink">
 <g>
  <path fill="#32454e" d="m325.36 162.4c-31.641 0-61.32 12.32-83.441 34.441-22.398 22.121-34.719 51.801-34.719 83.16s12.32 61.039 34.719 83.16c22.398 22.121 52.078 34.441 83.441 34.441 31.641 0 61.32-12.32 83.441-34.441 22.398-22.121 34.719-51.801 34.719-83.16v-24.922h49.281v-92.68zm153.44 78.68h-49.281v38.922c0 27.719-10.922 53.762-30.52 73.359-19.602 19.602-45.922 30.238-73.641 30.238s-54.039-10.922-73.641-30.238c-19.602-19.602-30.52-45.641-30.52-73.359s10.922-53.762 30.52-73.359c19.602-19.602 45.922-30.238 73.641-30.238l153.44-0.003906z"/>
  <path fill="#32454e" d="m286.72 241.64c-10.359 10.359-15.961 23.801-15.961 38.359s5.6016 28.281 15.961 38.359c10.359 10.359 24.078 15.961 38.641 15.961 14.559 0 28.281-5.6016 38.641-15.961s15.961-23.801 15.961-38.359-5.6016-28.281-15.961-38.359c-10.359-10.359-24.078-15.961-38.641-15.961-14.559 0-28.281 5.6016-38.641 15.961zm79.242 38.359c0 10.641-4.1992 21-11.762 28.559-7.5586 7.5586-17.922 11.762-28.559 11.762-10.641 0-21-4.1992-28.559-11.762-7.5586-7.5586-11.762-17.641-11.762-28.559 0-10.641 4.1992-21 11.762-28.559 7.5586-7.5586 17.922-11.762 28.559-11.762 10.922 0 21 4.1992 28.559 11.762 7.5625 7.5586 11.762 17.918 11.762 28.559z"/>
 </g>
</svg>
